####
#
# OBJ File Generated by Meshlab
#
####
# Object potichatdec2.obj
#
# Vertices: 102
# Faces: 132
#
####
mtllib ./potichatdec2.obj.mtl

vn 0.000000 0.000000 6.283185
v 8.389600 8.133000 0.000000 0.752941 0.752941 0.752941
vn 0.000000 0.000000 6.283186
v 7.881500 6.612500 0.000000 0.752941 0.752941 0.752941
vn 0.000000 0.000000 6.283185
v 6.378100 7.832700 0.000000 0.752941 0.752941 0.752941
vn 0.000000 0.000000 6.283185
v 6.815000 7.106100 0.000000 0.752941 0.752941 0.752941
vn 0.000000 0.000000 6.283185
v 5.904200 7.233700 0.000000 0.752941 0.752941 0.752941
vn 0.000000 0.000000 6.283185
v 5.278900 8.118800 0.000000 0.752941 0.752941 0.752941
vn 0.000000 0.000000 6.283185
v 6.147500 6.190900 0.000000 0.752941 0.752941 0.752941
vn 0.000000 0.000000 6.283185
v 7.106400 4.887100 0.000000 0.752941 0.752941 0.752941
vn 0.000000 0.000000 6.283185
v 4.579400 7.180900 0.000000 0.752941 0.752941 0.752941
vn 0.000000 0.000000 6.283185
v 5.090900 4.786800 0.000000 0.752941 0.752941 0.752941
vn 0.000000 0.000000 6.283185
v 5.525900 4.228700 0.000000 0.752941 0.752941 0.752941
vn 0.000000 0.000000 6.283185
v 6.479500 3.238200 0.000000 0.752941 0.752941 0.752941
vn 0.000000 0.000000 6.283186
v 3.015200 7.972800 0.000000 0.752941 0.752941 0.752941
vn 0.000000 0.000000 6.283186
v 3.284500 6.785100 0.000000 0.752941 0.752941 0.752941
vn 0.000000 0.000000 6.283185
v 4.060400 5.070800 0.000000 0.752941 0.752941 0.752941
vn 0.000000 0.000000 6.283185
v 3.168500 5.887600 0.000000 0.752941 0.752941 0.752941
vn 0.000000 0.000000 6.283185
v 4.752600 3.617100 0.000000 0.752941 0.752941 0.752941
vn 0.000000 0.000000 6.283185
v 5.041900 2.932100 0.000000 0.752941 0.752941 0.752941
vn 0.000000 0.000000 6.283185
v 3.139600 4.902400 0.000000 0.752941 0.752941 0.752941
vn 0.000000 0.000000 6.283186
v 3.862500 3.951000 0.000000 0.752941 0.752941 0.752941
vn 0.000000 0.000000 6.283186
v 1.913200 5.681000 0.000000 0.752941 0.752941 0.752941
vn 0.000000 0.000000 6.283185
v 2.462300 4.677100 0.000000 0.752941 0.752941 0.752941
vn 0.000000 0.000000 6.283185
v 2.559700 3.931300 0.000000 0.752941 0.752941 0.752941
vn 0.000000 0.000000 6.283185
v 3.242900 2.895200 0.000000 0.752941 0.752941 0.752941
vn 0.000000 0.000000 6.283186
v 1.818900 4.112400 0.000000 0.752941 0.752941 0.752941
vn 0.000000 0.000000 6.283185
v 2.205000 2.548900 0.000000 0.752941 0.752941 0.752941
vn 0.000000 0.000000 2.732023
v 8.745120 8.974490 0.000000 0.752941 0.752941 0.752941
vn 0.000000 0.000000 2.579072
v 9.020970 8.805520 0.000000 0.752941 0.752941 0.752941
vn 0.000000 0.000000 2.909769
v 8.457130 9.015080 0.000000 0.752941 0.752941 0.752941
vn 0.000000 0.000000 2.681283
v 9.167010 8.509780 0.000000 0.752941 0.752941 0.752941
vn 0.000000 0.000000 2.784217
v 9.166510 8.201700 0.000000 0.752941 0.752941 0.752941
vn 0.000000 0.000000 2.840968
v 7.565540 8.933000 0.000000 0.752941 0.752941 0.752941
vn 0.000000 0.000000 2.950811
v 8.676690 6.896430 0.000000 0.752941 0.752941 0.752941
vn 0.000000 0.000000 3.894004
v 6.877250 8.648120 0.000000 0.752941 0.752941 0.752941
vn 0.000000 0.000000 3.887861
v 8.298760 6.279710 0.000000 0.752941 0.752941 0.752941
vn 0.000000 0.000000 2.776982
v 6.260300 8.880330 0.000000 0.752941 0.752941 0.752941
vn 0.000000 0.000000 4.999416
v 7.102350 6.258060 0.000000 0.752941 0.752941 0.752941
vn 0.000000 0.000000 4.624308
v 7.090210 5.937260 0.000000 0.752941 0.752941 0.752941
vn 0.000000 0.000000 2.913258
v 8.403250 5.754780 0.000000 0.752941 0.752941 0.752941
vn 0.000000 0.000000 2.797971
v 8.394520 5.480770 0.000000 0.752941 0.752941 0.752941
vn 0.000000 0.000000 2.790396
v 5.406620 8.876380 0.000000 0.752941 0.752941 0.752941
vn 0.000000 0.000000 4.243640
v 6.886620 5.927020 0.000000 0.752941 0.752941 0.752941
vn 0.000000 0.000000 2.808139
v 8.285540 5.204290 0.000000 0.752941 0.752941 0.752941
vn 0.000000 0.000000 4.982192
v 6.748900 6.168110 0.000000 0.752941 0.752941 0.752941
vn 0.000000 0.000000 3.654061
v 7.692340 4.512640 0.000000 0.752941 0.752941 0.752941
vn 0.000000 0.000000 3.539155
v 4.294850 8.463200 0.000000 0.752941 0.752941 0.752941
vn 0.000000 0.000000 6.283186
v 5.836040 5.712820 0.000000 0.752941 0.752941 0.752941
vn 0.000000 0.000000 2.845407
v 7.574210 3.919090 0.000000 0.752941 0.752941 0.752941
vn 0.000000 0.000000 4.894892
v 4.813180 6.106180 0.000000 0.752941 0.752941 0.752941
vn 0.000000 0.000000 6.283185
v 5.942500 5.048560 0.000000 0.752941 0.752941 0.752941
vn 0.000000 0.000000 4.557490
v 4.790530 5.737680 0.000000 0.752941 0.752941 0.752941
vn 0.000000 0.000000 3.376914
v 7.187300 3.198300 0.000000 0.752941 0.752941 0.752941
vn 0.000000 0.000000 4.526825
v 4.495280 5.709990 0.000000 0.752941 0.752941 0.752941
vn 0.000000 0.000000 4.870349
v 4.396290 6.055440 0.000000 0.752941 0.752941 0.752941
vn 0.000000 0.000000 2.902740
v 2.834470 8.524190 0.000000 0.752941 0.752941 0.752941
vn 0.000000 0.000000 4.829466
v 2.570110 6.873920 0.000000 0.752941 0.752941 0.752941
vn 0.000000 0.000000 2.561947
v 2.185770 8.394640 0.000000 0.752941 0.752941 0.752941
vn 0.000000 0.000000 3.622843
v 7.009150 2.521320 0.000000 0.752941 0.752941 0.752941
vn 0.000000 0.000000 2.389313
v 1.912560 8.126110 0.000000 0.752941 0.752941 0.752941
vn 0.000000 0.000000 2.454972
v 1.897600 7.768060 0.000000 0.752941 0.752941 0.752941
vn 0.000000 0.000000 2.799043
v 2.049840 6.570630 0.000000 0.752941 0.752941 0.752941
vn 0.000000 0.000000 2.987429
v 5.661320 1.998950 0.000000 0.752941 0.752941 0.752941
vn 0.000000 0.000000 6.604497
v 5.681550 2.673870 0.000000 0.752941 0.752941 0.752941
vn 0.000000 0.000000 2.723299
v 5.699880 1.690080 0.000000 0.752941 0.752941 0.752941
vn 0.000000 0.000000 2.741446
v 7.130750 1.987400 0.000000 0.752941 0.752941 0.752941
vn 0.000000 0.000000 2.685497
v 7.079030 1.696940 0.000000 0.752941 0.752941 0.752941
vn 0.000000 0.000000 2.674611
v 1.748550 6.213260 0.000000 0.752941 0.752941 0.752941
vn 0.000000 0.000000 2.544898
v 5.879690 1.391800 0.000000 0.752941 0.752941 0.752941
vn 0.000000 0.000000 2.707004
v 6.587190 1.265830 0.000000 0.752941 0.752941 0.752941
vn 0.000000 0.000000 2.631698
v 6.216360 1.236740 0.000000 0.752941 0.752941 0.752941
vn 0.000000 0.000000 2.715981
v 6.886780 1.434540 0.000000 0.752941 0.752941 0.752941
vn 0.000000 0.000000 3.917184
v 4.502420 2.227190 0.000000 0.752941 0.752941 0.752941
vn 0.000000 0.000000 3.776697
v 4.268820 2.669350 0.000000 0.752941 0.752941 0.752941
vn 0.000000 0.000000 6.391508
v 1.678040 5.916770 0.000000 0.752941 0.752941 0.752941
vn 0.000000 0.000000 4.750302
v 3.898510 2.848070 0.000000 0.752941 0.752941 0.752941
vn 0.000000 0.000000 2.923600
v 5.907630 1.919970 0.000000 0.752941 0.752941 0.752941
vn 0.000000 0.000000 2.551015
v 4.320590 1.616860 0.000000 0.752941 0.752941 0.752941
vn 0.000000 0.000000 2.737986
v 5.930980 1.602220 0.000000 0.752941 0.752941 0.752941
vn 0.000000 0.000000 2.543167
v 4.424450 1.282330 0.000000 0.752941 0.752941 0.752941
vn 0.000000 0.000000 2.574992
v 5.812890 1.257740 0.000000 0.752941 0.752941 0.752941
vn 0.000000 0.000000 2.751485
v 5.120330 0.952265 0.000000 0.752941 0.752941 0.752941
vn 0.000000 0.000000 2.633905
v 5.512900 1.018140 0.000000 0.752941 0.752941 0.752941
vn 0.000000 0.000000 3.407571
v 1.058890 4.922320 0.000000 0.752941 0.752941 0.752941
vn 0.000000 0.000000 2.842630
v 0.823910 5.715190 0.000000 0.752941 0.752941 0.752941
vn 0.000000 0.000000 2.694104
v 4.727280 1.041750 0.000000 0.752941 0.752941 0.752941
vn 0.000000 0.000000 3.331616
v 3.738740 2.482210 0.000000 0.752941 0.752941 0.752941
vn 0.000000 0.000000 2.850386
v 1.075570 4.169120 0.000000 0.752941 0.752941 0.752941
vn 0.000000 0.000000 2.635518
v 3.677550 2.210760 0.000000 0.752941 0.752941 0.752941
vn 0.000000 0.000000 2.963240
v 0.831411 6.406940 0.000000 0.752941 0.752941 0.752941
vn 0.000000 0.000000 2.726234
v 3.444970 1.949710 0.000000 0.752941 0.752941 0.752941
vn 0.000000 0.000000 2.744873
v 2.097220 7.095020 0.000000 0.752941 0.752941 0.752941
vn 0.000000 0.000000 2.855510
v 3.113450 1.798610 0.000000 0.752941 0.752941 0.752941
vn 0.000000 0.000000 2.619432
v 2.198580 1.939420 0.000000 0.752941 0.752941 0.752941
vn 0.000000 0.000000 2.761648
v 2.467540 1.790910 0.000000 0.752941 0.752941 0.752941
vn 0.000000 0.000000 2.875467
v 2.782620 1.751460 0.000000 0.752941 0.752941 0.752941
vn 0.000000 0.000000 3.256146
v 1.830800 2.547260 0.000000 0.752941 0.752941 0.752941
vn 0.000000 0.000000 2.796255
v 1.435680 3.057750 0.000000 0.752941 0.752941 0.752941
vn 0.000000 0.000000 2.537539
v 2.078670 7.432450 0.000000 0.752941 0.752941 0.752941
vn 0.000000 0.000000 2.792300
v 1.009480 7.336870 0.000000 0.752941 0.752941 0.752941
vn 0.000000 0.000000 2.397745
v 1.850460 7.727120 0.000000 0.752941 0.752941 0.752941
vn 0.000000 0.000000 2.647233
v 1.169780 7.605210 0.000000 0.752941 0.752941 0.752941
vn 0.000000 0.000000 2.435669
v 1.479530 7.790020 0.000000 0.752941 0.752941 0.752941
# 102 vertices, 0 vertices normals


usemtl material_0
f 28//28 1//1 31//31
f 29//29 1//1 28//28
f 1//1 4//4 2//2
f 1//1 34//34 4//4
f 34//34 3//3 4//4
f 2//2 38//38 35//35
f 36//36 3//3 34//34
f 38//38 39//39 35//35
f 4//4 37//37 2//2
f 3//3 5//5 4//4
f 3//3 6//6 5//5
f 4//4 44//44 37//37
f 38//38 40//40 39//39
f 36//36 6//6 3//3
f 4//4 7//7 44//44
f 5//5 7//7 4//4
f 7//7 42//42 44//44
f 38//38 42//42 8//8
f 38//38 8//8 45//45
f 6//6 9//9 5//5
f 7//7 47//47 42//42
f 42//42 50//50 8//8
f 5//5 49//49 7//7
f 7//7 49//49 47//47
f 47//47 50//50 42//42
f 50//50 48//48 8//8
f 9//9 49//49 5//5
f 47//47 10//10 50//50
f 49//49 51//51 47//47
f 9//9 54//54 49//49
f 47//47 51//51 10//10
f 50//50 11//11 48//48
f 50//50 10//10 11//11
f 46//46 13//13 9//9
f 9//9 14//14 54//54
f 11//11 12//12 48//48
f 48//48 12//12 52//52
f 9//9 13//13 14//14
f 14//14 16//16 54//54
f 51//51 15//15 10//10
f 51//51 53//53 15//15
f 13//13 56//56 14//14
f 16//16 53//53 54//54
f 15//15 20//20 10//10
f 20//20 11//11 10//10
f 11//11 63//63 12//12
f 12//12 58//58 52//52
f 20//20 17//17 11//11
f 16//16 19//19 53//53
f 11//11 17//17 18//18
f 11//11 18//18 63//63
f 63//63 58//58 12//12
f 53//53 19//19 15//15
f 15//15 19//19 20//20
f 56//56 21//21 14//14
f 14//14 21//21 16//16
f 17//17 73//73 18//18
f 63//63 62//62 58//58
f 62//62 65//65 58//58
f 23//23 20//20 19//19
f 21//21 22//22 16//16
f 16//16 22//22 19//19
f 72//72 63//63 18//18
f 62//62 64//64 65//65
f 65//65 64//64 70//70
f 65//65 69//69 66//66
f 70//70 69//69 65//65
f 20//20 75//75 17//17
f 17//17 75//75 73//73
f 20//20 24//24 75//75
f 72//72 76//76 63//63
f 23//23 24//24 20//20
f 19//19 22//22 23//23
f 72//72 77//77 76//76
f 21//21 74//74 83//83
f 21//21 83//83 22//22
f 76//76 81//81 78//78
f 74//74 84//84 83//83
f 76//76 79//79 81//81
f 77//77 79//79 76//76
f 83//83 25//25 22//22
f 22//22 25//25 23//23
f 24//24 88//88 86//86
f 23//23 26//26 24//24
f 83//83 87//87 25//25
f 26//26 95//95 24//24
f 25//25 97//97 23//23
f 26//26 93//93 95//95
f 97//97 26//26 23//23
f 91//91 102//102 74//74
f 1//1 2//2 33//33
f 38//38 2//2 37//37
f 6//6 36//36 41//41
f 38//38 43//43 40//40
f 38//38 45//45 43//43
f 9//9 6//6 46//46
f 13//13 55//55 57//57
f 13//13 57//57 59//59
f 60//60 13//13 59//59
f 74//74 21//21 67//67
f 78//78 81//81 80//80
f 24//24 86//86 75//75
f 25//25 87//87 97//97
f 24//24 95//95 92//92
f 24//24 92//92 88//88
f 74//74 102//102 99//99
f 74//74 99//99 89//89
f 29//29 28//28 27//27
f 28//28 31//31 30//30
f 1//1 29//29 32//32
f 1//1 33//33 31//31
f 34//34 1//1 32//32
f 2//2 35//35 33//33
f 6//6 41//41 46//46
f 8//8 48//48 45//45
f 13//13 46//46 55//55
f 56//56 13//13 60//60
f 21//21 56//56 61//61
f 21//21 61//61 67//67
f 18//18 73//73 72//72
f 70//70 64//64 68//68
f 66//66 69//69 71//71
f 80//80 81//81 82//82
f 81//81 79//79 85//85
f 84//84 74//74 89//89
f 88//88 92//92 90//90
f 95//95 93//93 94//94
f 26//26 97//97 96//96
f 93//93 26//26 96//96
f 91//91 98//98 100//100
f 99//99 102//102 101//101
f 102//102 91//91 100//100
# 132 faces, 0 coords texture

# End of File